<?xml version="1.0" encoding="UTF-8"?>
<svg id="Capa_1" data-name="Capa 1" xmlns="http://www.w3.org/2000/svg" version="1.1" viewBox="0 0 567 567">
  <defs>
    <style>
      .cls-1 {
        fill: #f7511e;
        stroke-width: 0px;
      }
    </style>
  </defs>
  <path class="cls-1" d="M380.5,134.8c-.7,6.9-5.7,18.8-7.9,18.8s-2.6-1.3-4.1-2.9c-5.2-5.5-14.7-6-20.9-1.1-7.9,6.2-11.9,26.7-8.1,41.4,2.8,11,5.9,14,15.3,15.3,2.5.3,5.8,1.4,7.3,2.5,3.5,2.4,7.7,3.2,10.9,2,3.7-1.5,13.1-10.3,17.3-16.5,4.3-6.2,8.6-17.3,8.6-22-.1-8.4-6.4-15.1-15.4-16.3-3.7-.5-4.6-1.1-4.6-2.6,0-5.6,3.6-7.2,18.3-8.3,9.6-.8,10.7-1.8,6-5.5-2.5-2-3.7-2.2-10.5-1.8l-7.8.5v-3.3c0-2.6-2-6.4-3.4-6.4s-.6,2.8-1,6.2Z"/>
  <path class="cls-1" d="M177.5,135.9c-.9.7-2,3.2-2.3,5.5-.7,5-1.5,5.7-6.5,5.3-4.8-.3-4.9,1.4-.3,2.9,4.3,1.4,8.5,6.3,8.5,9.9s-.2,2.8-6.4,3.3c-15.1,1.3-20.9,11.9-15.6,28.9,2.4,7.8,6.1,13.9,12.5,20.3,10.3,10.2,15.7,12.1,23.9,8.2,3.4-1.6,7.2-2.6,10-2.6,6.6,0,9.1-1.6,12.5-8,6-11.2,7.4-21.6,4.6-33.8-4.5-19.3-14.8-25.2-29.8-16.8l-6.5,3.7-1.3-5.8c-1.3-6.2-1.5-14.4-.4-19.3.7-3.2-.1-3.7-2.9-1.7ZM197,161.3c-2.8,5.3-10.7,9.3-18.3,9.3s-8.3,1.1-11.9,6.8c-3.1,5-3.9,11.5-1.9,16.8.7,1.7.7,3.1.1,3.7s-2.1-1.6-4.1-5.7c-2.9-5.9-3.2-7.2-2.8-13.7.3-6.3.7-7.4,3.1-9.5,2.3-1.9,3.9-2.4,8.6-2.4,8.5,0,16.1-1.7,20.1-4.5,4.3-2.9,8.6-3.4,7.1-.8Z"/>
  <path class="cls-1" d="M301.9,161.5c-7.6,2.3-14.2,8.4-18.5,17l-2.7,5.4-2.1-4.3c-4.8-9.4-14.2-15-25.1-15h-4.5l1.3,4.5c3.4,11.2,9.4,17.3,21.5,22l6.8,2.6.7,7.6c.3,4.2.4,7.8.2,8.1-.3.2-3.1-1.2-6.4-3.3-19.1-11.8-41.6-3.1-47.9,18.4-1.1,4.1-1.4,8.3-1.1,17,.4,9.8,1,12.9,3.6,19.9,7,18.9,24.8,38.1,35.4,38.2,1.5,0,5-.9,7.8-2s7.4-2,10.3-2,7.8.9,11,2c3.1,1.1,6.4,2,7.4,2,10.3,0,24-13.5,32.9-32.3,5.3-11.3,6.7-18.4,6.2-31.2-.5-12.3-2.7-18.9-8.7-25.8-9.1-10.3-26.3-12.4-38.6-4.6-2.5,1.6-4.9,2.9-5.4,2.9-1.4,0-2-10.4-1-17.9,1.6-13.4,7.9-22.6,17-24.9,5.6-1.4,5.2.1-3.2,10.5-7.3,8.9-11.6,16.5-9.8,17.1.5.2,3.7-1,7.2-2.6,10.9-5.1,18.5-15,19.5-25.3l.5-4.9h-5.9c-3.3.1-7,.5-8.4.9ZM266.8,208.6c3.5,1.7,7.7,4,9.3,5.1,4.2,3.1,7,2.7,14-1.9,7.9-5.1,10.8-6.2,16.5-6.2s12.3,2,18.5,8c4.9,4.7,5.9,6.5,7.8,12.9,5.1,16.7-.7,37.5-15.7,55.7-3.6,4.4-11,10.1-11.9,9.1-.3-.3,2-3.8,5-7.9,6.6-8.6,13.7-21.9,16.2-30.3,2.7-9.1,2.5-22.7-.5-28.7-2.4-5-7.7-10.3-11.8-11.9-1.3-.5-4.8-.9-7.6-.9-5.1,0-8.8,1.4-18.7,7.1-4.5,2.6-10.3,2.1-15.6-1.4-8.6-5.7-17.7-7.1-24.9-3.8-19.1,8.8-17.4,39,3.8,68.1,3,4.1,5.3,7.8,5,8.3-.7,1.2-7.3-4.4-12.5-10.8-12.7-15.5-18-38.1-12.8-54.6,5.1-16.5,20.3-23.2,35.9-15.9Z"/>
  <path class="cls-1" d="M116.8,176.6c-4.9,2.9-2.3,11,3.4,11s5.7-1.5,5.7-5.2-5-8.2-9.1-5.8Z"/>
  <path class="cls-1" d="M434.5,179.8c-2.1,3-2,4.4.4,6.8s6.6,2.6,8.5-.4c1.5-2.2,1.5-2.7,0-5.5-2-3.9-6.5-4.3-8.9-.9Z"/>
  <path class="cls-1" d="M401.9,220c-14.2,3-26.3,10.1-33.8,19.8-8.9,11.6-11.1,28-5.6,41.8l1.6,3.9,3.6-7.2c6-12,16.1-20.5,28.2-23.7,6.1-1.6,7.3-2.9,11.1-12.1,1.8-4.4,3.8-7.8,4.3-7.6.7.3,1,3.1.7,7.7l-.3,7.3,3.3-.7c5.9-1.1,12-4.7,18.5-10.9,3.6-3.3,6.7-5.7,7.1-5.3,1.4,1.4-2,8.7-6.4,13.6-5.8,6.5-10.8,9-26.7,13.5-7.1,1.9-14.2,4.3-16,5.2-7.7,3.9-14.7,11.6-18.1,19.7l-1.5,3.4,9.3,2.2c10.5,2.5,24.5,2.9,32.8,1,9.1-2.1,20.8-8.3,29.1-15.7,8.7-7.7,22.7-23.1,31.1-34.3l5.6-7.4-12.7-4.8c-20.7-7.8-29.7-9.9-45.2-10.3-9.1-.3-15.6,0-20,.9ZM427.9,268.1c3.3,1.4,6.9,2.5,8,2.5,2.8,0,2.5,1.4-.5,2.8-3.5,1.6-6.9,1.5-11.3-.3-3.8-1.6-8.2-5.2-8.2-6.7s6.2-.7,12,1.7Z"/>
  <path class="cls-1" d="M88.9,232.8c-4.3,2.9-5.4,6.4-4,11.9,2.4,9,8.5,12.3,28.2,15.4,11.4,1.8,16.7,3.7,19.7,6.9,1.1,1.2,4,6.5,6.5,11.7,4.4,9.4,5.7,10.9,9.7,10.9s1.9-.7,1.9-6.3c-.1-13.7-4.2-25.2-11.5-31.6-5-4.4-39.8-21.1-43.9-21.1s-4.8,1-6.6,2.2Z"/>
  <path class="cls-1" d="M188.3,255.8c-2.2,1-4.4,4.7-4.4,7.3s3.7,5.5,6.4,5.5,7.6-3.7,7.6-6.9c0-4.6-5.4-7.9-9.6-5.9Z"/>
  <path class="cls-1" d="M105.4,297.3c-1.1.3-5,1.2-8.8,2-3.7.9-6.9,2-7.2,2.4-.3.5,5.7.9,13.2.9,23.1,0,37.1,3.5,65.6,16.5,26.4,12,41.3,17.4,67.1,24.5,40.4,11.1,72.5,15,123.1,15.1,14.6,0,25.3.4,24.5.9-1.9,1.1-21.4,4.6-34,6.2-12.5,1.6-50.8,1.6-63.5,0-33.6-4.2-87.2-19.6-124.2-35.7-10.6-4.6-19.9-8.4-20.5-8.4-1.4,0-.4,17.5,1.7,28.6,6.9,36.5,32.2,66.7,66,78.8,5.7,2.1-4.7,2.6-55.5,2.7-30,0-55.6.4-57,.8-3.7,1-3.3,4.4.5,5.2s341.8.8,367,0c18.3-.6,19-.7,19.3-2.7s-.2-2.1-14.9-2.7c-8.4-.4-36.3-.7-62.1-.7s-46.9-.3-46.6-1c.2-.6,4-2.6,8.4-4.4,29.4-11.8,51-36.7,58.9-68,3.5-13.7,5.9-34.6,4-34.6s-4.4,1.1-9.2,2.6c-12.4,3.6-24.7,5.2-48.3,6.3-11.3.6-21.8,1.3-23.5,1.6-1.6.2-12,1.7-23,3.2-35.3,4.7-61.4,3.3-96.5-5.3-22.7-5.6-37-10.7-58-20.9-24.6-11.8-30.9-13.6-50-14.1-8-.1-15.4-.1-16.5.2ZM179.3,355.8c5.1,4,2.4,11.9-4.1,11.9s-6.3-3.4-6.3-6.5,4-7.5,6.3-7.5,2.6.9,4.1,2.1ZM189.2,385.9c4.8,5.3,8.7,9.9,8.7,10.2s-1.3.6-2.8.6c-2.2,0-4.6-1.8-11-8.4-7.7-7.8-9.2-10.3-7.5-12,1.7-1.6,4.4.4,12.6,9.6Z"/>
  <path class="cls-1" d="M179.4,298.3c3.7,3.1,22,11.2,35.5,15.8,19.6,6.6,40.1,11.6,50,12.1l8.5.5-7-3.5c-22.8-11.3-62.6-23.7-83.5-26-5.2-.6-5.4-.6-3.5,1.1Z"/>
  <path class="cls-1" d="M449.9,299.3c-1.9.3-9.3,1.5-16.5,2.9-23.4,4.4-29.5,4.8-49.5,3.9-25.2-1.2-37.1-.8-45.5,1.4-8.8,2.4-50.6,18-52,19.4-2.2,2.3,18.6.1,29.5-3.1,22.4-6.7,45.3-9.6,65.9-8.5,14.7.8,25-.5,51.1-6.2,18.7-4.2,25.3-5.2,42.5-7,5.2-.6,5.7-.8,3.5-1.6-2.7-1-23.3-1.9-29-1.2Z"/>
</svg>