<svg version="1.0" xmlns="http://www.w3.org/2000/svg"
 width="567.000000pt" height="567.000000pt" viewBox="0 0 567.000000 567.000000"
 preserveAspectRatio="xMidYMid meet">
<g transform="translate(0.000000,567.000000) scale(0.100000,-0.100000)"
fill="#000000" stroke="none">
<path d="M3786 4828 c-7 -69 -57 -188 -79 -188 -7 0 -26 13 -41 29 -52 55
-147 60 -209 11 -79 -62 -119 -267 -81 -414 28 -110 59 -140 153 -153 25 -3
58 -14 73 -25 35 -24 77 -32 109 -20 37 15 131 103 173 165 43 62 86 173 86
220 -1 84 -64 151 -154 163 -37 5 -46 11 -46 26 0 56 36 72 183 83 96 8 107
18 60 55 -25 20 -37 22 -105 18 l-78 -5 0 33 c0 26 -20 64 -34 64 -2 0 -6 -28
-10 -62z"/>
<path d="M1756 4817 c-9 -7 -20 -32 -23 -55 -7 -50 -15 -57 -65 -53 -48 3 -49
-14 -3 -29 43 -14 85 -63 85 -99 0 -27 -2 -28 -64 -33 -151 -13 -209 -119
-156 -289 24 -78 61 -139 125 -203 103 -102 157 -121 239 -82 34 16 72 26 100
26 66 0 91 16 125 80 60 112 74 216 46 338 -45 193 -148 252 -298 168 l-65
-37 -13 58 c-13 62 -15 144 -4 193 7 32 -1 37 -29 17z m195 -254 c-28 -53
-107 -93 -183 -93 -63 0 -83 -11 -119 -68 -31 -50 -39 -115 -19 -168 7 -17 7
-31 1 -37 -5 -5 -21 16 -41 57 -29 59 -32 72 -28 137 3 63 7 74 31 95 23 19
39 24 86 24 85 0 161 17 201 45 43 29 86 34 71 8z"/>
<path d="M3000 4561 c-76 -23 -142 -84 -185 -170 l-27 -54 -21 43 c-48 94
-142 150 -251 150 l-45 0 13 -45 c34 -112 94 -173 215 -220 l68 -26 7 -76 c3
-42 4 -78 2 -81 -3 -2 -31 12 -64 33 -191 118 -416 31 -479 -184 -11 -41 -14
-83 -11 -170 4 -98 10 -129 36 -199 70 -189 248 -381 354 -382 15 0 50 9 78
20 28 11 74 20 103 20 29 0 78 -9 110 -20 31 -11 64 -20 74 -20 103 0 240 135
329 323 53 113 67 184 62 312 -5 123 -27 189 -87 258 -91 103 -263 124 -386
46 -25 -16 -49 -29 -54 -29 -14 0 -20 104 -10 179 16 134 79 226 170 249 56
14 52 -1 -32 -105 -73 -89 -116 -165 -98 -171 5 -2 37 10 72 26 109 51 185
150 195 253 l5 49 -59 -1 c-33 0 -70 -4 -84 -8z m-351 -471 c35 -17 77 -40 93
-51 42 -31 70 -27 140 19 79 51 108 62 165 62 77 0 123 -20 185 -80 49 -47 59
-65 78 -129 51 -167 -7 -375 -157 -557 -36 -44 -110 -101 -119 -91 -3 3 20 38
50 79 66 86 137 219 162 303 27 91 25 227 -5 287 -24 50 -77 103 -118 119 -13
5 -48 9 -76 9 -51 0 -88 -14 -187 -71 -45 -26 -103 -21 -156 14 -86 57 -177
71 -249 38 -191 -88 -174 -390 38 -681 30 -41 53 -78 50 -83 -7 -12 -73 44
-125 108 -127 155 -180 381 -128 546 51 165 203 232 359 159z"/>
<path d="M1149 4410 c-49 -29 -23 -110 34 -110 40 0 57 15 57 52 0 50 -50 82
-91 58z"/>
<path d="M4326 4378 c-21 -30 -20 -44 4 -68 28 -28 66 -26 85 4 15 22 15 27 0
55 -20 39 -65 43 -89 9z"/>
<path d="M4000 3976 c-142 -30 -263 -101 -338 -198 -89 -116 -111 -280 -56
-418 l16 -39 36 72 c60 120 161 205 282 237 61 16 73 29 111 121 18 44 38 78
43 76 7 -3 10 -31 7 -77 l-3 -73 33 7 c59 11 120 47 185 109 36 33 67 57 71
53 14 -14 -20 -87 -64 -136 -58 -65 -108 -90 -267 -135 -71 -19 -142 -43 -160
-52 -77 -39 -147 -116 -181 -197 l-15 -34 93 -22 c105 -25 245 -29 328 -10 91
21 208 83 291 157 87 77 227 231 311 343 l56 74 -127 48 c-207 78 -297 99
-452 103 -91 3 -156 0 -200 -9z m260 -481 c33 -14 69 -25 80 -25 28 0 25 -14
-5 -28 -35 -16 -69 -15 -113 3 -38 16 -82 52 -82 67 0 16 62 7 120 -17z"/>
<path d="M870 3848 c-43 -29 -54 -64 -40 -119 24 -90 85 -123 282 -154 114
-18 167 -37 197 -69 11 -12 40 -65 65 -117 44 -94 57 -109 97 -109 17 0 19 7
19 63 -1 137 -42 252 -115 316 -50 44 -398 211 -439 211 -18 0 -48 -10 -66
-22z"/>
<path d="M1864 3618 c-22 -10 -44 -47 -44 -73 0 -23 37 -55 64 -55 36 0 76 37
76 69 0 46 -54 79 -96 59z"/>
<path d="M1035 3204 c-11 -3 -50 -12 -88 -20 -37 -9 -69 -20 -72 -24 -3 -5 57
-9 132 -9 231 0 371 -35 656 -165 264 -120 413 -174 671 -245 404 -111 725
-150 1231 -151 146 0 253 -4 245 -9 -19 -11 -214 -46 -340 -62 -125 -16 -508
-16 -635 0 -336 42 -872 196 -1242 357 -106 46 -199 84 -205 84 -14 0 -4 -175
17 -286 69 -365 322 -667 660 -788 57 -21 -47 -26 -555 -27 -300 0 -556 -4
-570 -8 -37 -10 -33 -44 5 -52 38 -8 3418 -8 3670 0 183 6 190 7 193 27 3 20
-2 21 -149 27 -84 4 -363 7 -621 7 -321 0 -469 3 -466 10 2 6 40 26 84 44 294
118 510 367 589 680 35 137 59 346 40 346 -3 0 -44 -11 -92 -26 -124 -36 -247
-52 -483 -63 -113 -6 -218 -13 -235 -16 -16 -2 -120 -17 -230 -32 -353 -47
-614 -33 -965 53 -227 56 -370 107 -580 209 -246 118 -309 136 -500 141 -80 1
-154 1 -165 -2z m739 -585 c51 -40 24 -119 -41 -119 -31 0 -63 34 -63 65 0 28
40 75 63 75 8 0 26 -9 41 -21z m99 -301 c48 -53 87 -99 87 -102 0 -3 -13 -6
-28 -6 -22 0 -46 18 -110 84 -77 78 -92 103 -75 120 17 16 44 -4 126 -96z"/>
<path d="M1775 3194 c37 -31 220 -112 355 -158 196 -66 401 -116 500 -121 l85
-5 -70 35 c-228 113 -626 237 -835 260 -52 6 -54 6 -35 -11z"/>
<path d="M4480 3184 c-19 -3 -93 -15 -165 -29 -234 -44 -295 -48 -495 -39
-252 12 -371 8 -455 -14 -88 -24 -506 -180 -520 -194 -22 -23 186 -1 295 31
224 67 453 96 659 85 147 -8 250 5 511 62 187 42 253 52 425 70 52 6 57 8 35
16 -27 10 -233 19 -290 12z"/>
</g>
</svg>
