<svg version="1.0" xmlns="http://www.w3.org/2000/svg"
 width="567.000000pt" height="567.000000pt" viewBox="0 0 567.000000 567.000000"
 preserveAspectRatio="xMidYMid meet">

<g transform="translate(0.000000,567.000000) scale(0.100000,-0.100000)"
fill="#000000" stroke="none">
<path d="M3803 4325 c-2 -53 -26 -122 -59 -174 l-16 -23 -26 25 c-153 143
-321 5 -322 -263 0 -80 21 -180 46 -218 22 -34 74 -62 114 -62 20 0 53 -11 75
-25 45 -28 93 -32 134 -11 46 24 156 149 189 215 17 34 36 86 43 116 23 103
-33 184 -141 205 -29 5 -54 10 -55 10 -1 0 0 11 3 25 8 45 41 61 158 73 59 7
110 14 113 17 3 3 -7 18 -22 32 -25 25 -33 27 -109 28 l-83 0 -5 40 c-3 25
-11 41 -20 43 -12 2 -16 -10 -17 -53z"/>
<path d="M1776 4307 c-16 -16 -26 -37 -26 -55 0 -34 -22 -57 -46 -48 -20 8
-54 -1 -54 -14 0 -5 14 -11 30 -15 45 -10 90 -60 90 -100 l0 -33 -70 -4 c-74
-4 -105 -19 -144 -72 -18 -23 -21 -42 -21 -114 0 -78 4 -94 33 -154 37 -77
125 -178 191 -220 54 -34 111 -37 159 -8 21 13 50 20 83 20 88 0 120 29 169
156 33 83 33 222 1 314 -55 157 -141 196 -277 124 -46 -24 -69 -32 -74 -24
-18 30 -30 147 -20 204 5 33 8 62 5 64 -2 2 -15 -7 -29 -21z m192 -245 c13
-39 -134 -111 -199 -97 -26 6 -35 1 -73 -37 -53 -52 -72 -109 -56 -166 25 -90
-1 -90 -40 1 -41 94 -26 203 31 232 17 9 56 15 97 15 79 0 149 18 188 49 28
22 45 23 52 3z"/>
<path d="M3030 4056 c-90 -24 -149 -74 -196 -168 l-25 -48 -42 62 c-57 83
-121 118 -213 118 -35 0 -64 -2 -64 -5 0 -2 10 -30 21 -62 37 -98 99 -151 240
-207 l37 -14 4 -79 c3 -43 3 -80 2 -81 -1 -2 -23 10 -48 27 -63 44 -118 61
-190 61 -93 0 -151 -24 -217 -89 -78 -77 -101 -141 -102 -276 0 -123 18 -199
77 -320 50 -101 170 -242 237 -275 49 -25 110 -25 177 0 66 25 97 25 175 -1
83 -28 151 -23 207 16 65 45 147 151 201 260 61 123 79 195 79 305 0 142 -36
239 -115 308 -55 48 -119 72 -194 72 -72 0 -115 -13 -174 -50 -26 -16 -49 -30
-52 -30 -12 0 -16 121 -6 188 20 135 85 228 172 247 57 13 50 -5 -41 -116 -74
-91 -107 -152 -85 -157 30 -7 130 49 177 99 51 54 88 137 88 194 0 35 -1 35
-42 34 -24 0 -63 -6 -88 -13z m-414 -451 c27 -8 79 -32 116 -55 37 -22 75 -40
85 -40 10 0 45 18 78 40 118 79 202 87 303 29 101 -57 148 -156 146 -309 -1
-80 -6 -108 -32 -178 -40 -107 -91 -191 -161 -262 -64 -65 -101 -89 -101 -66
0 8 5 18 10 21 17 10 83 104 128 180 118 201 129 426 24 528 -89 87 -175 88
-305 5 -66 -42 -118 -42 -184 0 -196 126 -383 25 -383 -208 0 -127 58 -276
169 -430 36 -51 56 -87 49 -89 -23 -8 -162 152 -200 230 -93 190 -91 416 4
524 74 84 155 110 254 80z"/>
<path d="M1154 3884 c-36 -55 26 -116 81 -80 14 10 25 26 25 39 0 63 -73 92
-106 41z"/>
<path d="M4363 3890 c-12 -5 -24 -18 -28 -29 -22 -69 70 -106 104 -42 7 13 5
26 -9 49 -21 33 -30 37 -67 22z"/>
<path d="M4078 3479 c-254 -27 -444 -186 -480 -403 -12 -70 -2 -154 27 -222
l16 -39 34 71 c39 79 115 163 178 196 23 12 71 31 107 42 69 23 68 21 116 134
37 86 52 82 46 -12 l-5 -74 44 9 c55 13 98 38 177 107 35 30 66 52 69 48 11
-10 -27 -92 -61 -132 -47 -55 -109 -86 -271 -134 -152 -45 -206 -71 -260 -127
-35 -37 -78 -102 -89 -138 -5 -18 2 -22 77 -39 239 -55 438 -14 609 128 124
103 392 417 372 436 -14 13 -271 105 -344 123 -60 15 -235 38 -270 35 -8 0
-50 -4 -92 -9z m227 -498 c74 -27 77 -29 55 -41 -38 -20 -123 -8 -164 24 -20
15 -36 31 -36 37 0 18 67 9 145 -20z"/>
<path d="M898 3348 c-61 -35 -72 -83 -37 -155 34 -71 105 -100 323 -133 115
-18 153 -49 206 -170 42 -93 56 -110 92 -110 27 0 28 2 28 48 0 69 -19 171
-39 218 -39 87 -82 120 -295 226 -110 54 -209 98 -220 98 -12 0 -37 -10 -58
-22z"/>
<path d="M1861 3094 c-40 -51 -18 -104 43 -104 37 0 76 34 76 67 0 26 -44 63
-76 63 -12 0 -32 -12 -43 -26z"/>
<path d="M1066 2700 c-32 -5 -86 -18 -120 -27 l-61 -18 155 -6 c237 -10 377
-46 623 -160 341 -158 675 -265 1037 -333 272 -52 345 -58 753 -63 221 -3 385
-9 380 -14 -14 -14 -262 -57 -404 -70 -166 -15 -514 -6 -659 16 -135 20 -382
81 -630 155 -233 70 -342 109 -515 185 -71 31 -152 66 -179 77 l-49 19 7 -118
c23 -414 231 -746 571 -914 55 -27 106 -49 112 -49 7 0 13 -4 13 -9 0 -17
-106 -21 -616 -21 -287 0 -529 -3 -538 -6 -21 -8 -20 -41 2 -48 29 -9 3794 -8
3837 1 31 6 41 14 43 31 l3 22 -529 0 c-515 0 -712 6 -712 20 0 4 33 19 73 34
291 106 521 369 602 691 24 95 55 329 44 339 -3 3 -40 -6 -82 -19 -120 -38
-234 -55 -452 -66 -110 -5 -272 -19 -360 -30 -88 -11 -214 -27 -280 -36 -210
-26 -491 -9 -749 47 -271 59 -455 123 -691 241 -114 56 -189 86 -260 104 -112
29 -275 40 -369 25z m734 -592 c40 -43 15 -108 -43 -108 -59 0 -86 58 -51 108
20 29 67 29 94 0z m94 -298 c47 -51 83 -97 80 -102 -14 -23 -53 -2 -125 69
-80 78 -104 118 -78 133 19 13 30 4 123 -100z"/>
<path d="M1794 2691 c78 -86 727 -294 909 -290 l42 1 -85 40 c-233 110 -499
197 -735 241 -159 30 -151 30 -131 8z"/>
<path d="M4415 2665 c-305 -60 -435 -69 -745 -51 -205 11 -253 2 -566 -115
-245 -92 -248 -94 -204 -100 63 -9 145 4 290 44 212 59 287 68 610 77 265 8
307 11 410 35 262 60 400 85 498 91 81 6 100 9 86 18 -29 16 -297 18 -379 1z"/>
</g>
</svg>
