<?xml version="1.0" encoding="UTF-8"?>
<svg id="Capa_1" data-name="Capa 1" xmlns="http://www.w3.org/2000/svg" version="1.1" viewBox="0 0 567 567">
  <defs>
    <style>
      .cls-1 {
        fill: #f7511e;
        stroke-width: 0px;
      }

      .cls-2 {
        fill: #000;
        font-family: Calibri-Bold, Calibri;
        font-size: 101px;
        font-weight: 700;
      }
    </style>
  </defs>
  <g>
    <path class="cls-1" d="M378,82.8c-.2,5.3-2.6,12.2-5.9,17.4l-1.6,2.3-2.6-2.5c-15.3-14.3-32.1-.5-32.2,26.3,0,8,2.1,18,4.6,21.8,2.2,3.4,7.4,6.2,11.4,6.2s5.3,1.1,7.5,2.5c4.5,2.8,9.3,3.2,13.4,1.1,4.6-2.4,15.6-14.9,18.9-21.5s3.6-8.6,4.3-11.6c2.3-10.3-3.3-18.4-14.1-20.5-2.9-.5-5.4-1-5.5-1s0-1.1.3-2.5c.8-4.5,4.1-6.1,15.8-7.3,5.9-.7,11-1.4,11.3-1.7s-.7-1.8-2.2-3.2c-2.5-2.5-3.3-2.7-10.9-2.8h-8.3l-.5-4c-.3-2.5-1.1-4.1-2-4.3-1.2-.2-1.6,1-1.7,5.3Z"/>
    <path class="cls-1" d="M175.3,84.6c-1.6,1.6-2.6,3.7-2.6,5.5,0,3.4-2.2,5.7-4.6,4.8-2-.8-5.4.1-5.4,1.4s1.4,1.1,3,1.5c4.5,1,9,6,9,10v3.3l-7,.4c-7.4.4-10.5,1.9-14.4,7.2-1.8,2.3-2.1,4.2-2.1,11.4s.4,9.4,3.3,15.4c3.7,7.7,12.5,17.8,19.1,22,5.4,3.4,11.1,3.7,15.9.8,2.1-1.3,5-2,8.3-2,8.8,0,12-2.9,16.9-15.6,3.3-8.3,3.3-22.2.1-31.4-5.5-15.7-14.1-19.6-27.7-12.4-4.6,2.4-6.9,3.2-7.4,2.4-1.8-3-3-14.7-2-20.4.5-3.3.8-6.2.5-6.4-.2-.2-1.5.7-2.9,2.1ZM194.5,109.1c1.3,3.9-13.4,11.1-19.9,9.7-2.6-.6-3.5-.1-7.3,3.7-5.3,5.2-7.2,10.9-5.6,16.6,2.5,9-.1,9-4-.1-4.1-9.4-2.6-20.3,3.1-23.2,1.7-.9,5.6-1.5,9.7-1.5,7.9,0,14.9-1.8,18.8-4.9,2.8-2.2,4.5-2.3,5.2-.3Z"/>
    <path class="cls-1" d="M300.7,109.7c-9,2.4-14.9,7.4-19.6,16.8l-2.5,4.8-4.2-6.2c-5.7-8.3-12.1-11.8-21.3-11.8s-6.4.2-6.4.5,1,3,2.1,6.2c3.7,9.8,9.9,15.1,24,20.7l3.7,1.4.4,7.9c.3,4.3.3,8,.2,8.1-.1.2-2.3-1-4.8-2.7-6.3-4.4-11.8-6.1-19-6.1s-15.1,2.4-21.7,8.9c-7.8,7.7-10.1,14.1-10.2,27.6,0,12.3,1.8,19.9,7.7,32,5,10.1,17,24.2,23.7,27.5,4.9,2.5,11,2.5,17.7,0,6.6-2.5,9.7-2.5,17.5.1,8.3,2.8,15.1,2.3,20.7-1.6,6.5-4.5,14.7-15.1,20.1-26,6.1-12.3,7.9-19.5,7.9-30.5s-3.6-23.9-11.5-30.8c-5.5-4.8-11.9-7.2-19.4-7.2s-11.5,1.3-17.4,5c-2.6,1.6-4.9,3-5.2,3-1.2,0-1.6-12.1-.6-18.8,2-13.5,8.5-22.8,17.2-24.7,5.7-1.3,5,.5-4.1,11.6-7.4,9.1-10.7,15.2-8.5,15.7,3,.7,13-4.9,17.7-9.9,5.1-5.4,8.8-13.7,8.8-19.4s-.1-3.5-4.2-3.4c-2.4,0-6.3.6-8.8,1.3ZM259.3,154.8c2.7.8,7.9,3.2,11.6,5.5,3.7,2.2,7.5,4,8.5,4s4.5-1.8,7.8-4c11.8-7.9,20.2-8.7,30.3-2.9,10.1,5.7,14.8,15.6,14.6,30.9-.1,8-.6,10.8-3.2,17.8-4,10.7-9.1,19.1-16.1,26.2-6.4,6.5-10.1,8.9-10.1,6.6s.5-1.8,1-2.1c1.7-1,8.3-10.4,12.8-18,11.8-20.1,12.9-42.6,2.4-52.8-8.9-8.7-17.5-8.8-30.5-.5-6.6,4.2-11.8,4.2-18.4,0-19.6-12.6-38.3-2.5-38.3,20.8s5.8,27.6,16.9,43c3.6,5.1,5.6,8.7,4.9,8.9-2.3.8-16.2-15.2-20-23-9.3-19-9.1-41.6.4-52.4,7.4-8.4,15.5-11,25.4-8Z"/>
    <path class="cls-1" d="M113.1,126.9c-3.6,5.5,2.6,11.6,8.1,8,1.4-1,2.5-2.6,2.5-3.9,0-6.3-7.3-9.2-10.6-4.1Z"/>
    <path class="cls-1" d="M434,126.3c-1.2.5-2.4,1.8-2.8,2.9-2.2,6.9,7,10.6,10.4,4.2.7-1.3.5-2.6-.9-4.9-2.1-3.3-3-3.7-6.7-2.2Z"/>
    <path class="cls-1" d="M405.5,167.4c-25.4,2.7-44.4,18.6-48,40.3-1.2,7-.2,15.4,2.7,22.2l1.6,3.9,3.4-7.1c3.9-7.9,11.5-16.3,17.8-19.6,2.3-1.2,7.1-3.1,10.7-4.2,6.9-2.3,6.8-2.1,11.6-13.4,3.7-8.6,5.2-8.2,4.6,1.2l-.5,7.4,4.4-.9c5.5-1.3,9.8-3.8,17.7-10.7,3.5-3,6.6-5.2,6.9-4.8,1.1,1-2.7,9.2-6.1,13.2-4.7,5.5-10.9,8.6-27.1,13.4-15.2,4.5-20.6,7.1-26,12.7-3.5,3.7-7.8,10.2-8.9,13.8-.5,1.8.2,2.2,7.7,3.9,23.9,5.5,43.8,1.4,60.9-12.8,12.4-10.3,39.2-41.7,37.2-43.6-1.4-1.3-27.1-10.5-34.4-12.3-6-1.5-23.5-3.8-27-3.5-.8,0-5,.4-9.2.9ZM428.2,217.2c7.4,2.7,7.7,2.9,5.5,4.1-3.8,2-12.3.8-16.4-2.4-2-1.5-3.6-3.1-3.6-3.7,0-1.8,6.7-.9,14.5,2Z"/>
    <path class="cls-1" d="M87.5,180.5c-6.1,3.5-7.2,8.3-3.7,15.5,3.4,7.1,10.5,10,32.3,13.3,11.5,1.8,15.3,4.9,20.6,17,4.2,9.3,5.6,11,9.2,11s2.8-.2,2.8-4.8c0-6.9-1.9-17.1-3.9-21.8-3.9-8.7-8.2-12-29.5-22.6-11-5.4-20.9-9.8-22-9.8s-3.7,1-5.8,2.2Z"/>
    <path class="cls-1" d="M183.8,205.9c-4,5.1-1.8,10.4,4.3,10.4s7.6-3.4,7.6-6.7-4.4-6.3-7.6-6.3-3.2,1.2-4.3,2.6Z"/>
    <path class="cls-1" d="M104.3,245.3c-3.2.5-8.6,1.8-12,2.7l-6.1,1.8,15.5.6c23.7,1,37.7,4.6,62.3,16,34.1,15.8,67.5,26.5,103.7,33.3,27.2,5.2,34.5,5.8,75.3,6.3,22.1.3,38.5.9,38,1.4-1.4,1.4-26.2,5.7-40.4,7-16.6,1.5-51.4.6-65.9-1.6-13.5-2-38.2-8.1-63-15.5-23.3-7-34.2-10.9-51.5-18.5-7.1-3.1-15.2-6.6-17.9-7.7l-4.9-1.9.7,11.8c2.3,41.4,23.1,74.6,57.1,91.4,5.5,2.7,10.6,4.9,11.2,4.9s1.3.4,1.3.9c0,1.7-10.6,2.1-61.6,2.1s-52.9.3-53.8.6c-2.1.8-2,4.1.2,4.8,2.9.9,379.4.8,383.7-.1,3.1-.6,4.1-1.4,4.3-3.1l.3-2.2h-52.9c-51.5,0-71.2-.6-71.2-2s3.3-1.9,7.3-3.4c29.1-10.6,52.1-36.9,60.2-69.1,2.4-9.5,5.5-32.9,4.4-33.9-.3-.3-4,.6-8.2,1.9-12,3.8-23.4,5.5-45.2,6.6-11,.5-27.2,1.9-36,3s-21.4,2.7-28,3.6c-21,2.6-49.1.9-74.9-4.7-27.1-5.9-45.5-12.3-69.1-24.1-11.4-5.6-18.9-8.6-26-10.4-11.2-2.9-27.5-4-36.9-2.5ZM177.7,304.5c4,4.3,1.5,10.8-4.3,10.8s-8.6-5.8-5.1-10.8c2-2.9,6.7-2.9,9.4,0ZM187.1,334.3c4.7,5.1,8.3,9.7,8,10.2-1.4,2.3-5.3.2-12.5-6.9-8-7.8-10.4-11.8-7.8-13.3,1.9-1.3,3-.4,12.3,10Z"/>
    <path class="cls-1" d="M177.1,246.2c7.8,8.6,72.7,29.4,90.9,29h4.2c0-.1-8.5-4.1-8.5-4.1-23.3-11-49.9-19.7-73.5-24.1-15.9-3-15.1-3-13.1-.8Z"/>
    <path class="cls-1" d="M439.2,248.8c-30.5,6-43.5,6.9-74.5,5.1-20.5-1.1-25.3-.2-56.6,11.5-24.5,9.2-24.8,9.4-20.4,10,6.3.9,14.5-.4,29-4.4,21.2-5.9,28.7-6.8,61-7.7,26.5-.8,30.7-1.1,41-3.5,26.2-6,40-8.5,49.8-9.1,8.1-.6,10-.9,8.6-1.8-2.9-1.6-29.7-1.8-37.9-.1Z"/>
  </g>
  <text class="cls-2" transform="translate(80.9 468.7)"><tspan x="0" y="0">FoodFlow</tspan></text>
</svg>